<?xml version="1.0" encoding="iso-8859-1"?>
<!-- Generator: Adobe Illustrator 19.0.0, SVG Export Plug-In . SVG Version: 6.00 Build 0)  -->
<svg version="1.1" id="Capa_1" xmlns="http://www.w3.org/2000/svg" xmlns:xlink="http://www.w3.org/1999/xlink" x="0px" y="0px"
	 viewBox="0 0 512 512" style="enable-background:new 0 0 512 512;" xml:space="preserve">
<path style="fill:#9D27B0;" d="M467.62,166.627c-8.229,3.48-17.748,0.007-21.803-7.953c-22.951-44.53-60.752-79.632-106.858-99.227
	C259.003,25.618,166.515,43.726,105.22,105.21c-15.702,15.694-28.871,33.73-39.038,53.464c-4.055,7.961-13.574,11.433-21.803,7.953
	l-0.061-0.025c-8.708-3.691-12.774-13.743-9.083-22.451c0.155-0.364,0.321-0.723,0.5-1.075C78.056,60.413,163.134,8.441,256,8.522
	l0,0c92.83,0.046,177.846,51.98,220.263,134.553c4.286,8.431,0.925,18.74-7.507,23.026c-0.353,0.179-0.712,0.346-1.076,0.5
	L467.62,166.627z"/>
<path d="M50.908,176.49c-3.387,0.003-6.74-0.677-9.858-2c-13.066-5.502-19.198-20.554-13.697-33.619
	c0.243-0.575,0.505-1.141,0.788-1.697C92.793,13.33,247.219-36.275,373.062,28.376c47.598,24.453,86.343,63.198,110.797,110.797
	c6.439,12.626,1.422,28.081-11.204,34.52c-0.537,0.274-1.084,0.529-1.638,0.764l-0.067,0.033
	c-12.347,5.151-26.582-0.032-32.726-11.916C386.477,61.932,262.941,22.295,162.3,74.043c-38.026,19.553-68.984,50.511-88.534,88.538
	C69.347,171.126,60.529,176.493,50.908,176.49z M256,34.123c58.844-0.036,115.277,23.373,156.817,65.05
	c16.326,16.316,30.018,35.071,40.584,55.592c1.988,4.014,6.766,5.774,10.883,4.009l0,0c2.225-0.95,3.96-2.773,4.8-5.042
	c0.821-2.21,0.672-4.664-0.408-6.758C408.343,29.516,264.215-16.793,146.758,43.54c-44.437,22.825-80.607,58.995-103.432,103.432
	c-1.081,2.095-1.229,4.549-0.408,6.758c1.591,4.454,6.49,6.774,10.944,5.183c2.046-0.731,3.737-2.211,4.732-4.142
	c23.861-46.312,63.174-82.815,111.124-103.183C197.007,40.011,226.355,34.07,256,34.123z"/>
<path style="fill:#4527A0;" d="M59.733,303.093v-55.637c-0.068-9.397-7.669-16.999-17.066-17.066
	c-9.415,0.027-17.039,7.653-17.066,17.066v92.075"/>
<path d="M25.599,348.064c-4.71,0.003-8.53-3.814-8.533-8.523c0-0.003,0-0.007,0-0.01v-92.075
	c0.015-14.132,11.468-25.584,25.599-25.6c6.835-0.039,13.39,2.711,18.15,7.616c4.816,4.739,7.504,11.227,7.45,17.983v55.633
	c0,4.712-3.821,8.533-8.533,8.533s-8.533-3.821-8.533-8.533v-55.633c0.02-2.223-0.864-4.359-2.45-5.916
	c-1.58-1.674-3.781-2.621-6.083-2.617c-4.711,0.003-8.53,3.822-8.533,8.533v92.075c0.003,4.71-3.814,8.53-8.523,8.533
	C25.607,348.064,25.604,348.064,25.599,348.064z"/>
<path d="M42.667,238.923c-4.71,0.003-8.53-3.814-8.533-8.523c0-0.003,0-0.007,0-0.01v-64.683c0-4.712,3.821-8.533,8.533-8.533
	s8.533,3.821,8.533,8.533v64.683c0.003,4.71-3.814,8.53-8.523,8.533C42.673,238.923,42.67,238.923,42.667,238.923z"/>
<path d="M486.399,347.123c-4.71,0.003-8.53-3.814-8.533-8.523c0-0.003,0-0.007,0-0.01v-91.134c0.02-2.223-0.864-4.359-2.45-5.916
	c-1.58-1.674-3.781-2.621-6.083-2.617c-4.711,0.003-8.53,3.822-8.533,8.533v61.441c0,4.712-3.821,8.533-8.533,8.533
	s-8.533-3.821-8.533-8.533v-61.441c0.015-14.132,11.467-25.584,25.6-25.6c14.111,0.066,25.534,11.489,25.599,25.6v91.134
	c0.003,4.71-3.814,8.53-8.523,8.533C486.407,347.123,486.404,347.123,486.399,347.123z"/>
<path d="M469.333,238.923c-4.71,0.003-8.53-3.814-8.533-8.523c0-0.003,0-0.007,0-0.01v-64.683c0-4.712,3.821-8.533,8.533-8.533
	c4.712,0,8.533,3.821,8.533,8.533v64.683c0.003,4.71-3.814,8.53-8.523,8.533C469.339,238.923,469.336,238.923,469.333,238.923z"/>
<path style="fill:#6A1B9A;" d="M102.4,486.39c-51.841,0-93.867-42.026-93.867-93.867s42.026-93.867,93.867-93.867V486.39z"/>
<path style="fill:#9D27B0;" d="M136.534,486.39c-51.841,0-93.867-42.026-93.867-93.867s42.026-93.867,93.867-93.867V486.39z"/>
<path d="M102.4,494.923c-56.554,0-102.4-45.846-102.4-102.4s45.846-102.4,102.4-102.4c4.71-0.003,8.53,3.814,8.533,8.523
	c0,0.003,0,0.007,0,0.01V486.39c0.003,4.71-3.814,8.53-8.523,8.533C102.406,494.923,102.403,494.923,102.4,494.923z M93.867,307.615
	c-46.894,4.714-81.086,46.55-76.373,93.444c4.059,40.378,35.994,72.314,76.373,76.373V307.615z"/>
<path style="fill:#283593;" d="M153.6,307.189v170.666c0.019,14.12-11.412,25.581-25.532,25.599c-0.023,0-0.045,0-0.069,0h-17.066
	c-1.055,0.025-2.103-0.179-3.072-0.597c-3.277-1.273-5.443-4.42-5.461-7.936V290.123c0.018-3.516,2.184-6.663,5.461-7.936
	c0.968-0.418,2.017-0.623,3.072-0.597h17.066c14.12-0.019,25.581,11.412,25.599,25.532C153.6,307.144,153.6,307.167,153.6,307.189z"
	/>
<path style="fill:#3F51B5;" d="M127.999,307.189v170.666c0.017,12.039-8.373,22.455-20.139,25.003
	c-3.277-1.273-5.443-4.42-5.461-7.936v-204.8c0.018-3.516,2.184-6.663,5.461-7.936C119.627,284.735,128.017,295.151,127.999,307.189
	z"/>
<path style="fill:#4527A0;" d="M452.267,303.093v-55.637c0.068-9.397,7.669-16.999,17.066-17.066
	c9.415,0.027,17.039,7.653,17.066,17.066v92.075"/>
<path style="fill:#6A1B9A;" d="M409.6,486.39c51.841,0,93.867-42.026,93.867-93.867s-42.026-93.867-93.867-93.867V486.39z"/>
<path style="fill:#9D27B0;" d="M375.466,486.39c51.841,0,93.867-42.026,93.867-93.867s-42.026-93.867-93.867-93.867L375.466,486.39
	L375.466,486.39z"/>
<path style="fill:#283593;" d="M358.4,307.189v170.666c-0.019,14.12,11.412,25.581,25.532,25.599c0.023,0,0.046,0,0.069,0h17.066
	c1.055,0.025,2.103-0.179,3.072-0.597c3.277-1.273,5.443-4.42,5.461-7.936V290.123c-0.018-3.516-2.184-6.663-5.461-7.936
	c-0.968-0.418-2.017-0.623-3.072-0.597H384c-14.12-0.019-25.581,11.412-25.599,25.532C358.4,307.144,358.4,307.167,358.4,307.189z"
	/>
<path style="fill:#3F51B5;" d="M383.999,307.189v170.666c-0.017,12.039,8.373,22.455,20.138,25.003
	c3.277-1.273,5.443-4.42,5.461-7.936v-204.8c-0.018-3.516-2.184-6.663-5.461-7.936C392.373,284.735,383.983,295.151,383.999,307.189
	z"/>
<path d="M127.999,511.989h-17.066c-9.421-0.012-17.054-7.646-17.066-17.066v-204.8c0.012-9.421,7.646-17.054,17.066-17.066h17.066
	c18.843,0.019,34.114,15.289,34.134,34.134v170.665C162.114,496.7,146.844,511.97,127.999,511.989z M110.933,290.123v204.8h17.066
	c9.421-0.012,17.054-7.646,17.066-17.066V307.189c-0.012-9.421-7.646-17.054-17.066-17.066H110.933z"/>
<path d="M409.6,494.923c-4.71,0.003-8.53-3.814-8.533-8.523c0-0.003,0-0.007,0-0.01V298.656c-0.003-4.71,3.814-8.53,8.523-8.533
	c0.003,0,0.007,0,0.01,0c56.554,0,102.4,45.846,102.4,102.4S466.154,494.923,409.6,494.923z M418.133,307.615v169.816
	c46.894-4.714,81.086-46.55,76.373-93.444C490.447,343.608,458.512,311.673,418.133,307.615z"/>
<path d="M401.067,511.989H384c-18.843-0.019-34.114-15.289-34.134-34.134V307.189c0.019-18.843,15.289-34.114,34.134-34.134h17.066
	c9.421,0.012,17.054,7.646,17.066,17.066v204.8C418.121,504.343,410.487,511.977,401.067,511.989z M383.999,290.123
	c-9.421,0.012-17.054,7.646-17.066,17.066v170.666c0.012,9.421,7.646,17.054,17.066,17.066h17.066V290.123H383.999z"/>
<path d="M427.6,137.889c-1.872,0.001-3.691-0.617-5.175-1.759C380.225,103.839,319.567,85.322,256,85.322
	S131.775,103.84,89.575,136.131c-3.752,2.849-9.103,2.118-11.953-1.634c-2.835-3.733-2.127-9.054,1.586-11.915
	C124.325,88.056,188.767,68.255,256,68.255s131.675,19.8,176.792,54.325c3.742,2.865,4.454,8.221,1.589,11.963
	C432.764,136.654,430.258,137.89,427.6,137.889z"/>
<g>
</g>
<g>
</g>
<g>
</g>
<g>
</g>
<g>
</g>
<g>
</g>
<g>
</g>
<g>
</g>
<g>
</g>
<g>
</g>
<g>
</g>
<g>
</g>
<g>
</g>
<g>
</g>
<g>
</g>
</svg>
