<?xml version="1.0" ?><!DOCTYPE svg  PUBLIC '-//W3C//DTD SVG 1.1//EN'  'http://www.w3.org/Graphics/SVG/1.1/DTD/svg11.dtd'><svg height="100%" style="fill-rule:evenodd;clip-rule:evenodd;stroke-linejoin:round;stroke-miterlimit:2;" version="1.1" viewBox="0 0 24 24" width="100%" xml:space="preserve" xmlns="http://www.w3.org/2000/svg" xmlns:serif="http://www.serif.com/" xmlns:xlink="http://www.w3.org/1999/xlink"><g id="Icon"><path d="M10.189,4.75l-1.219,-1.22c-0.293,-0.292 -0.293,-0.768 -0,-1.06c0.292,-0.293 0.768,-0.293 1.06,-0l1.97,1.969l1.97,-1.969c0.292,-0.293 0.768,-0.293 1.06,-0c0.293,0.292 0.293,0.768 0,1.06l-1.219,1.22l3.189,0c2.623,-0 4.75,2.127 4.75,4.75l-0,6c-0,2.368 -1.733,4.331 -4,4.691l-0,0.809c0,0.414 -0.336,0.75 -0.75,0.75c-0.414,0 -0.75,-0.336 -0.75,-0.75l0,-0.75l-8.5,-0l-0,0.75c-0,0.414 -0.336,0.75 -0.75,0.75c-0.414,-0 -0.75,-0.336 -0.75,-0.75l-0,-0.809c-2.267,-0.36 -4,-2.323 -4,-4.691c-0,-1.881 -0,-4.119 0,-6c0,-2.623 2.127,-4.75 4.75,-4.75l3.189,0Zm6.811,1.5l-10,-0c-1.795,-0 -3.25,1.455 -3.25,3.25c-0,1.881 -0,4.119 -0,6c0,1.795 1.455,3.25 3.25,3.25l10,0c1.795,0 3.25,-1.455 3.25,-3.25l-0,-6c-0,-1.795 -1.455,-3.25 -3.25,-3.25Z"/><path d="M17.5,15.75l-2,0c-0.414,-0 -0.75,0.336 -0.75,0.75c-0,0.414 0.336,0.75 0.75,0.75l2,0c0.414,-0 0.75,-0.336 0.75,-0.75c-0,-0.414 -0.336,-0.75 -0.75,-0.75Z"/></g></svg>