<svg height="480pt" viewBox="-48 0 480 480.0066" width="480pt" xmlns="http://www.w3.org/2000/svg"><path d="m5.476562 479.585938c3.261719 1.109374 6.871094-.015626 8.925782-2.785157l113.601562-151.464843 113.597656 151.464843c1.511719 2.011719 3.882813 3.199219 6.402344 3.199219 4.417969 0 8-3.582031 8-8v-264h120c4.417969 0 8-3.582031 8-8v-128c-.042968-39.746094-32.253906-71.9570312-72-72h-240c-39.746094.0429688-71.957031 32.253906-71.99999975 72v400c.00390625 3.441406 2.20703175 6.496094 5.47265575 7.585938zm306.527344-463.585938c30.914063.035156 55.964844 25.085938 56 56v120h-112v-120c.035156-30.914062 25.085938-55.964844 56-56zm-296 56c.035156-30.914062 25.085938-55.964844 56-56h194.792969c-16.945313 13.652344-26.792969 34.242188-26.792969 56v376l-105.601562-140.800781c-1.511719-2.011719-3.882813-3.199219-6.398438-3.199219-2.519531 0-4.890625 1.1875-6.402344 3.199219l-105.597656 140.800781zm0 0"/></svg>